HIERARCHY
ROOT Hips
{
	OFFSET 0.00000 0.00000 0.00000
	CHANNELS 6 Xposition Yposition Zposition Zrotation Yrotation Xrotation 
	JOINT LHipJoint
	{
		OFFSET 0 0 0
		CHANNELS 3 Zrotation Yrotation Xrotation
		JOINT LeftUpLeg
		{
			OFFSET 1.85590 -1.73949 0.84976
			CHANNELS 3 Zrotation Yrotation Xrotation
			JOINT LeftLeg
			{
				OFFSET 2.36836 -6.50702 0.00000
				CHANNELS 3 Zrotation Yrotation Xrotation
				JOINT LeftFoot
				{
					OFFSET 2.53268 -6.95849 0.00000
					CHANNELS 3 Zrotation Yrotation Xrotation
					JOINT LeftToeBase
					{
						OFFSET 0.15935 -0.43781 1.94506
						CHANNELS 3 Zrotation Yrotation Xrotation
						End Site
						{
							OFFSET 0.00000 -0.00000 1.00661
						}
					}
				}
			}
		}
	}
	JOINT RHipJoint
	{
		OFFSET 0 0 0
		CHANNELS 3 Zrotation Yrotation Xrotation
		JOINT RightUpLeg
		{
			OFFSET -1.68297 -1.73949 0.84976
			CHANNELS 3 Zrotation Yrotation Xrotation
			JOINT RightLeg
			{
				OFFSET -2.44709 -6.72334 0.00000
				CHANNELS 3 Zrotation Yrotation Xrotation
				JOINT RightFoot
				{
					OFFSET -2.43843 -6.69953 0.00000
					CHANNELS 3 Zrotation Yrotation Xrotation
					JOINT RightToeBase
					{
						OFFSET -0.20854 -0.57295 2.02172
						CHANNELS 3 Zrotation Yrotation Xrotation
						End Site
						{
							OFFSET -0.00000 -0.00000 1.05594
						}
					}
				}
			}
		}
	}
	JOINT LowerBack
	{
		OFFSET 0 0 0
		CHANNELS 3 Zrotation Yrotation Xrotation
		JOINT Spine
		{
			OFFSET -0.01560 2.23971 -0.03712
			CHANNELS 3 Zrotation Yrotation Xrotation
			JOINT Spine1
			{
				OFFSET 0.05490 2.19225 -0.19086
				CHANNELS 3 Zrotation Yrotation Xrotation
				JOINT Neck
				{
					OFFSET 0 0 0
					CHANNELS 3 Zrotation Yrotation Xrotation
					JOINT Neck1
					{
						OFFSET -0.12403 1.43168 0.27585
						CHANNELS 3 Zrotation Yrotation Xrotation
						JOINT Head
						{
							OFFSET 0.17855 1.46173 -0.32578
							CHANNELS 3 Zrotation Yrotation Xrotation
							End Site
							{
								OFFSET 0.07217 1.51590 -0.14537
							}
						}
					}
				}
				JOINT LeftShoulder
				{
					OFFSET 0 0 0
					CHANNELS 3 Zrotation Yrotation Xrotation
					JOINT LeftArm
					{
						OFFSET 3.27650 0.85634 0.05396
						CHANNELS 3 Zrotation Yrotation Xrotation
						JOINT LeftForeArm
						{
							OFFSET 4.96755 -0.00000 0.00000
							CHANNELS 3 Zrotation Yrotation Xrotation
							JOINT LeftHand
							{
								OFFSET 3.35751 -0.00000 0.00000
								CHANNELS 3 Zrotation Yrotation Xrotation
								JOINT LeftFingerBase
								{
									OFFSET 0 0 0
									CHANNELS 3 Zrotation Yrotation Xrotation
									JOINT LeftHandIndex1
									{
										OFFSET 0.79697 -0.00000 0.00000
										CHANNELS 3 Zrotation Yrotation Xrotation
										End Site
										{
											OFFSET 0.64254 -0.00000 0.00000
										}
									}
								}
								JOINT LThumb
								{
									OFFSET 0 0 0
									CHANNELS 3 Zrotation Yrotation Xrotation
									End Site
									{
										OFFSET 0.65235 -0.00000 0.65235
									}
								}
							}
						}
					}
				}
				JOINT RightShoulder
				{
					OFFSET 0 0 0
					CHANNELS 3 Zrotation Yrotation Xrotation
					JOINT RightArm
					{
						OFFSET -3.24434 1.02034 0.34688
						CHANNELS 3 Zrotation Yrotation Xrotation
						JOINT RightForeArm
						{
							OFFSET -5.21859 -0.00000 -0.00000
							CHANNELS 3 Zrotation Yrotation Xrotation
							JOINT RightHand
							{
								OFFSET -3.36504 -0.00000 0.00000
								CHANNELS 3 Zrotation Yrotation Xrotation
								JOINT RightFingerBase
								{
									OFFSET 0 0 0
									CHANNELS 3 Zrotation Yrotation Xrotation
									JOINT RightHandIndex1
									{
										OFFSET -0.62044 -0.00000 0.00000
										CHANNELS 3 Zrotation Yrotation Xrotation
										End Site
										{
											OFFSET -0.50022 -0.00000 0.00000
										}
									}
								}
								JOINT RThumb
								{
									OFFSET 0 0 0
									CHANNELS 3 Zrotation Yrotation Xrotation
									End Site
									{
										OFFSET -0.50786 -0.00000 0.50786
									}
								}
							}
						}
					}
				}
			}
		}
	}
}
MOTION
Frames: 8
Frame Time: 0.105263
0.00 0.00 0.00 0 0 0 0 0 0 -21 0 0 0 0 0 0 0 0 0 0 0 0 0 0 21 0 0 0 0 0 0 0 0 0 0 0 0 0 0 0 0 0 0 0 0 0 0 -16 0 0 21 0 0 11 0 0 0 -8 0 0 0 0 0 0 0 0 0 0 0 0 0 0 0 0 0 0 0 0 8 0 0 0 0 0 0 0 0 0 0 0 0 0 0 0 0 0
0.00 0.00 0.00 -7.6347 -8.2228 9.7969 0.0000 0.0000 0.0000 -7.7568 -8.3444 -44.2420 1.2561 7.1051 20.0271 0.4318 5.8356 -15.9216 0.7425 -5.5044 -15.3530 0.0000 0.0000 0.0000 29.1320 -3.1312 19.8220 0.0000 0.0000 -0.0000 0.0332 3.9200 -0.9339 -1.9840 8.8328 -25.2736 2.9615 3.4563 -4.5807 3.9317 4.3455 0.0334 2.6860 2.1802 2.5135 -13.3598 -5.7233 -22.9676 15.9160 -7.2816 18.7359 6.9175 -2.4583 10.9922 -0.0000 -0.0000 0.0000 -89.8715 22.5746 -7.0579 5.3252 -9.1321 -0.4256 -0.0000 -0.0000 34.9681 7.3360 -24.0030 -2.9978 -7.1250 0.0000 -0.0000 -13.5043 6.3504 12.2823 -0.0000 -0.0000 0.0000 73.1327 7.4590 49.1165 -31.4375 42.0941 -12.3621 0.0000 -0.0000 -22.8953 -28.2825 -14.9828 7.9191 7.1250 -0.0000 -0.0000 -0.6739 -46.8831 0.0313
0.00 0.00 0.00 -5.0196 -6.7744 9.4321 0.0000 0.0000 0.0000 -12.4454 -7.6156 -47.0495 3.5155 11.4862 33.9377 -0.2177 8.2676 -3.7569 0.0720 -1.7311 -4.7632 0.0000 0.0000 0.0000 24.3896 -4.4884 17.6824 -0.5011 -4.5381 12.5957 -0.3141 -0.1555 10.5326 -1.8618 8.5722 -24.4659 0.1796 3.2067 -5.0916 2.8977 4.2024 -0.7569 3.1543 2.0946 1.8643 -13.1375 -6.1826 -22.9541 16.7012 -8.2171 18.6661 7.0214 -2.7797 11.1695 -0.0000 -0.0000 0.0000 -88.4771 20.9503 -13.9000 4.8460 -8.3245 -0.3529 -0.0000 -0.0000 41.5996 6.8861 -23.5173 -2.7589 -7.1250 0.0000 -0.0000 -13.7759 6.8652 12.4036 -0.0000 -0.0000 0.0000 75.3267 2.9830 44.6370 -31.8920 42.4609 -12.6679 0.0000 -0.0000 -24.0316 -33.5700 -19.5983 12.5496 7.1250 -0.0000 -0.0000 -5.4865 -53.0356 1.0872
0.00 0.00 0.00 -3.5637 -5.8655 8.3730 0.0000 0.0000 0.0000 -15.2838 -7.3129 -45.3534 4.5041 12.8026 38.6340 -0.0101 4.5203 -6.0632 0.0306 1.1285 3.1026 0.0000 0.0000 0.0000 21.9306 -5.0835 11.7758 -2.5900 -9.9998 28.9759 -0.6799 -3.4338 14.7899 -0.5633 4.8073 -13.3597 -0.9181 3.1421 -4.0043 2.3244 4.1942 -0.8109 3.1013 2.0949 1.1666 -12.9987 -6.4781 -23.1281 16.6705 -8.6611 18.6633 6.9039 -2.9657 11.2733 0.0000 -0.0000 0.0000 -87.6424 18.9437 -9.3386 5.5065 -9.4366 -0.4548 -0.0000 -0.0000 36.2536 7.0179 -23.9652 -2.8625 -7.1250 0.0000 -0.0000 -13.6976 6.4170 12.4509 0.0000 -0.0000 0.0000 76.1367 -0.1486 43.3964 -31.6969 42.3042 -12.5363 0.0000 -0.0000 -27.3731 -35.5036 -22.7345 15.4133 7.1250 -0.0000 -0.0000 -7.3204 -57.0653 2.1719
0.00 0.00 0.00 1.0260 -6.2455 7.5936 0.0000 0.0000 0.0000 -21.8371 -6.3527 -40.6746 4.3286 12.5852 37.8351 0.1381 3.1276 -8.8920 0.0086 0.5999 1.6484 0.0000 0.0000 0.0000 16.2919 -3.8384 3.7068 -6.2180 -14.6363 45.8504 -0.7929 -8.4496 16.0683 -0.2661 3.3183 -9.1661 -5.3062 2.9424 -2.9931 1.0066 4.0690 -1.0481 4.1166 2.0559 0.1526 -13.6425 -6.7413 -23.2218 17.0896 -8.9350 18.8383 7.1454 -3.0865 11.4651 -0.0000 -0.0000 0.0000 -87.6861 17.2920 3.2550 6.9463 -11.8308 -0.7206 -0.0000 -0.0000 21.4026 10.9168 -23.1352 -4.3336 -7.1250 0.0000 -0.0000 -11.2896 6.8388 10.0674 -0.0000 -0.0000 0.0000 77.2456 -3.0033 42.7719 -30.5086 41.3253 -11.7440 0.0000 -0.0000 -28.0600 -36.1653 -23.0640 15.9796 7.1250 -0.0000 -0.0000 -8.0661 -57.6057 2.5003
0.00 0.00 0.00 2.0934 -6.0001 7.7295 0.0000 0.0000 0.0000 -24.8345 -3.8205 -34.8766 3.8665 11.9807 35.6636 0.4165 0.4854 -12.3771 0.0224 0.9667 2.6571 0.0000 0.0000 0.0000 15.6373 -1.2057 -8.6358 -11.1574 -18.0112 63.2916 0.3585 -13.3547 3.8665 -0.2736 3.3643 -9.2946 -5.7653 2.4777 -3.1833 0.6607 3.4796 -0.9115 4.0213 1.7481 0.4588 -13.6534 -6.3400 -23.3954 17.4573 -8.3744 18.4376 7.3792 -2.7899 11.2706 0.0000 0.0000 0.0000 -87.6871 12.3769 15.7497 9.1746 -15.4382 -1.2462 -0.0000 -0.0000 7.9045 15.2923 -25.0083 -6.5935 -7.1250 0.0000 -0.0000 -8.6859 4.4234 8.0854 0.0000 0.0000 0.0000 78.8257 -5.6096 41.8312 -26.2486 37.4532 -9.0384 0.0000 -0.0000 -25.8955 -33.1928 -20.4249 12.8604 7.1250 -0.0000 -0.0000 -4.9876 -53.9004 1.0934
0.00 0.00 0.00 0.9714 -1.1089 7.4371 0.0000 0.0000 0.0000 -25.4915 -4.2284 -19.0430 2.3821 9.6203 27.7556 0.9361 0.3066 -18.4018 0.0000 -0.0311 -0.0853 0.0000 0.0000 0.0000 18.7506 4.7224 -27.0365 -12.3279 -18.5259 67.0245 -0.2201 -6.8917 -13.9448 -0.3878 3.9991 -11.0740 -3.4901 0.0147 -3.1613 1.7242 0.1119 -0.9510 3.7391 0.0558 0.7850 -12.8498 -5.4874 -23.8549 14.8473 -6.9968 20.8987 6.5664 -2.3689 11.8399 0.0000 0.0000 0.0000 -86.9536 1.5738 36.9922 14.3125 -23.1797 -2.9500 -0.0000 0.0000 -5.7009 14.6196 -23.3024 -5.8913 -7.1250 0.0000 -0.0000 -8.9995 6.2312 8.0721 0.0000 0.0000 0.0000 78.4579 -12.7611 43.4550 -19.3528 29.8547 -5.2053 0.0000 -0.0000 -21.1078 -35.4805 -28.6494 18.8674 7.1250 -0.0000 -0.0000 -6.2672 -63.7331 2.8521
0.00 0.00 0.00 1.8851 0.9543 6.9356 0.0000 0.0000 0.0000 -27.2574 -3.4113 -8.7942 1.6319 8.0530 22.8753 1.1758 0.8750 -20.8283 0.0319 -1.1536 -3.1715 0.0000 0.0000 0.0000 16.8444 9.9740 -34.3233 -8.1822 -16.2517 53.2165 -0.8833 -1.8412 -18.5102 -0.7809 5.6418 -15.7485 -4.1199 -0.7540 -2.6413 1.5769 -0.9116 -0.8484 3.9072 -0.4568 0.6988 -13.6506 -5.5576 -23.3131 15.3947 -7.0245 20.9308 6.9237 -2.4049 11.8116 -0.0000 -0.0000 0.0000 -85.6590 -5.0103 43.1582 19.8550 -30.4673 -5.4577 -0.0000 0.0000 -11.6397 16.8004 -26.0406 -7.5504 -7.1250 0.0000 -0.0000 -7.8464 3.1588 7.4736 -0.0000 -0.0000 0.0000 77.8747 -18.2245 42.8115 -17.5973 27.6384 -4.3608 0.0000 -0.0000 -17.6989 -32.3440 -23.9489 14.4158 7.1250 -0.0000 -0.0000 -3.4573 -57.6785 1.0740
